<svg xmlns="http://www.w3.org/2000/svg" enable-background="new 0 0 47.5 47.5" viewBox="0 0 47.5 47.5" id="Helicopter"><defs><clipPath id="a"><path d="M0 38h38V0H0v38Z" fill="#000000" class="color000000 svgShape"></path></clipPath></defs><path fill="#6f667f" d="M20 6h-2v5h2V6zM10 11h2V6h-2v5z" transform="matrix(1.25 0 0 -1.25 0 47.5)" class="color66757f svgShape"></path><g clip-path="url(#a)" transform="matrix(1.25 0 0 -1.25 0 47.5)" fill="#000000" class="color000000 svgShape"><path fill="#bf9eff" d="M0 0c0-.552-2.686-1-6-1s-6 .448-6 1 2.686 1 6 1 6-.448 6-1" transform="translate(13.999 34)" class="color99aab5 svgShape"></path><path fill="#bf9eff" d="M0 0c0-.552-2.686-1-6-1s-6 .448-6 1 2.686 1 6 1 6-.448 6-1" transform="translate(27.999 34)" class="color99aab5 svgShape"></path><path fill="#bf9eff" d="M16 28h-2v6h2v-6z" class="color99aab5 svgShape"></path><path fill="#6f667f" d="M0 0c0-.552-.896-1-2-1s-2 .448-2 1 .896 1 2 1 2-.448 2-1" transform="translate(16.999 34)" class="color66757f svgShape"></path><path fill="#ecabff" d="M0 0c0 3 0 7-1 7s-3-4-4-6 5-1 5-1" transform="translate(35.999 27)" class="colorffcc4d svgShape"></path><path fill="#ecabff" d="M0 0c0 2.209-8 3-19 3h-2c-6.627 0-12.75-5.451-12.75-11.25S-30-18-21-18-9-13.299-9-7.5c0 .88-.138 1.731-.371 2.549C-5-4 0-2.007 0 0" transform="translate(35.999 27)" class="colorffcc4d svgShape"></path><path fill="#9ce4ff" d="M0 0c-2.091-2.918-3.068-7.589 1.213-7.784C6-8 8-8 9.063-5.413 10.428-2.092 10 2 8.787 2.783 6.467 4.28 2.092 2.918 0 0" transform="translate(5.999 24)" class="color3b88c3 svgShape"></path><path fill="#9ce4ff" d="M0 0c2.159-3.464 2.07-6.161-1.841-7.465-3-1-4 2-3.841 5.535.112 2.484.206 4.196 1.841 4.466C-2.394 2.775-1.314 2.109 0 0" transform="translate(22.84 24.465)" class="color3b88c3 svgShape"></path><path fill="#bf9eff" d="M0 0c.903-1.273 1.271-2.564.82-2.884-.45-.32-1.548.454-2.451 1.726-.903 1.273-1.271 2.564-.82 2.884C-2.001 2.046-.903 1.273 0 0" transform="translate(33.18 29.886)" class="color99aab5 svgShape"></path><path fill="#bf9eff" d="M0 0c.909-1.279 1.28-2.575.83-2.895-.45-.32-1.553.458-2.46 1.737-.909 1.28-1.279 2.576-.829 2.896C-2.009 2.058-.907 1.279 0 0" transform="translate(36.46 25.265)" class="color99aab5 svgShape"></path><path fill="#6f667f" d="M0 0a1 1 0 1 0-1.632-1.158A1 1 0 0 0 0 0" transform="translate(34.816 27.581)" class="color66757f svgShape"></path><path fill="#bf9eff" d="M0 0a2 2 0 0 0-2-2h-20a2 2 0 0 0 0 4h20a2 2 0 0 0 2-2" transform="translate(27 5)" class="color99aab5 svgShape"></path></g></svg>