<svg xmlns="http://www.w3.org/2000/svg" xmlns:xlink="http://www.w3.org/1999/xlink" viewBox="0 0 64 64" id="Racingflags"><defs><path id="a" d="M.06 64V.04H64V64z" fill="#9ce4ff" class="color000000 svgShape"></path></defs><g fill="none" fill-rule="evenodd"><mask id="b" fill="#fff"><use xlink:href="#a"></use></mask><path fill="#7756b8" d="M64 32c0 17.673-14.327 32-32 32C14.327 64 0 49.673 0 32 0 14.327 14.327 0 32 0c17.673 0 32 14.327 32 32" mask="url(#b)" class="colorb85756 svgShape"></path><path fill="#654c97" d="M49.032 41.65a1.11 1.11 0 0 1-.786-.326L37.658 30.736l1-1 4.303 4.303 4.714-4.714-4.303-4.303 4.303 4.303 3.714-3.714 6.286 6.285a1.11 1.11 0 0 1 0 1.571l-7.857 7.857a1.108 1.108 0 0 1-.786.326M14.642 42a1.11 1.11 0 0 1-.785-.325L6 33.818c-.434-.434-.108-1.488.325-1.922l6.286-6.285 3.714 3.714 4.303-4.303-4.303 4.303 4.714 4.714 4.303-4.303 1 1-5.303 5.303-5.611 5.636a1.11 1.11 0 0 1-.786.325" class="color974d4c svgShape"></path><path fill="#fffeff" d="m47.675 29.325-4.714 4.714 5.285 5.285a1.112 1.112 0 0 0 1.572 0l3.928-3.928-6.071-6.071" class="colorfffffe svgShape"></path><path fill="#fffeff" d="m52.389 24.611-6.285-6.286a1.11 1.11 0 0 0-1.571 0l-3.929 3.929 7.071 7.071 4.714-4.714" class="colorfffffe svgShape"></path><path fill="#544c65" d="m53.746 35.396 3.929-3.929a1.11 1.11 0 0 0 0-1.571l-5.286-5.285-4.714 4.714 6.071 6.071M40.604 22.254l-3.928 3.928a1.112 1.112 0 0 0 0 1.572l6.285 6.285 4.714-4.714-7.071-7.071" class="color4c5665 svgShape"></path><path fill="#fffeff" d="m16.325 29.325 4.714 4.714-5.611 5.636a1.11 1.11 0 0 1-1.571 0l-3.929-3.929 6.397-6.421" class="colorfffffe svgShape"></path><path fill="#fffeff" d="m11.611 24.611 6.285-6.286a1.112 1.112 0 0 1 1.572 0l3.928 3.929-7.071 7.071-4.714-4.714" class="colorfffffe svgShape"></path><path fill="#544c65" d="M9.928 35.746 6 31.818c-.434-.434-.108-1.488.325-1.922l5.286-5.285 4.714 4.714-6.397 6.421M23.396 22.254l3.928 3.928a1.112 1.112 0 0 1 0 1.572l-6.285 6.285-4.714-4.714 7.071-7.071" class="color4c5665 svgShape"></path><path fill="#654c97" d="M17.569 50.203a1.5 1.5 0 0 1-1.118-2.5c.018.021.038.041.057.061.293.293.677.439 1.061.439.384 0 .768-.146 1.061-.439L31 35.393l1 1-13.371 13.371a1.493 1.493 0 0 1-1.06.439m16.552-15.931-1-1 3.537-3.537.018.018.982.983-3.537 3.536M47.38 19.601l-.294-.294c.02-.019.039-.04.057-.06.098.108.177.228.237.354" class="color974d4c svgShape"></path><path fill="#55417d" d="m37.658 30.736-.982-.983-.018-.018 1-.999 1 1-1 1" class="color7d4241 svgShape"></path><path fill="#ecabff" d="m43.372 25.022-1-1.001 4.714-4.714.294.294a1.5 1.5 0 0 1-.294 1.707l-3.714 3.714" class="colorcfcdc8 svgShape"></path><path fill="#484155" d="m38.658 29.736-1-1 4.714-4.715 1 1.001-4.714 4.714" class="color414a55 svgShape"></path><path fill="#d9cade" d="M44.965 17.186 16.508 45.642a1.502 1.502 0 0 0 0 2.122 1.502 1.502 0 0 0 2.122 0l28.456-28.457a1.5 1.5 0 1 0-2.121-2.121" class="colordedeca svgShape"></path><path fill="#654c97" d="M46.431 50.203c-.384 0-.767-.146-1.06-.439L32 36.393l2.121-2.121 13.371 13.371a1.5 1.5 0 0 1-1.061 2.56M28.879 33.272l-2.537-2.536.982-.983a1.11 1.11 0 0 0 0-1.571l-.214-.214.214-.214c.048-.048.09-.099.127-.152L31 31.151l-2.121 2.121M16.62 19.601a1.506 1.506 0 0 1 .709-.708l-.709.708" class="color974d4c svgShape"></path><path fill="#55417d" d="m26.342 30.736-1-1 1.768-1.768.214.214a1.11 1.11 0 0 1 0 1.571l-.982.983" class="color7d4241 svgShape"></path><path fill="#ecabff" d="m20.628 25.022-3.714-3.714a1.5 1.5 0 0 1-.294-1.707l.709-.708a1.502 1.502 0 0 1 1.706.294l3.714 3.714-2.121 2.121" class="colorcfcdc8 svgShape"></path><path fill="#484155" d="m25.342 29.736-4.714-4.714 2.121-2.121 4.702 4.701a1.125 1.125 0 0 1-.127.152l-1.982 1.982" class="color414a55 svgShape"></path><path fill="#55417d" d="m32 36.393-1-1 2.121-2.121 1 1L32 36.393" class="color7d4241 svgShape"></path><path fill="#bf9eff" d="m31 35.393-2.121-2.121L31 31.151l2.121 2.121L31 35.393" class="colorb3b2a4 svgShape"></path><path fill="#d9cade" d="M16.914 19.307 45.37 47.764a1.502 1.502 0 0 0 2.122 0 1.502 1.502 0 0 0 0-2.122L19.035 17.186a1.5 1.5 0 1 0-2.121 2.121" class="colordedeca svgShape"></path></g></svg>