<svg xmlns="http://www.w3.org/2000/svg" viewBox="0 0 64 64" id="CupidArrow"><path fill="#9ce4ff" d="M10.631 29.8 37.556 9.065a1 1 0 0 1 1.22 1.585L12.112 31.181zm27.535 25.206a1 1 0 0 1-.61-.207l-26.45-20.507 1.167-1.4 26.5 20.32a1 1 0 0 1-.61 1.792z" class="colora4c0d8 svgShape"></path><path fill="#d65bfa" d="M47.713 30.511a.5.5 0 0 0 .5-.489c.026-1.449-.322-5.948-5.014-11.222a9.6 9.6 0 0 1-1.278-11.868 2.369 2.369 0 0 1 1.664-1.16 1.568 1.568 0 0 1 .994.151c.742.41.778 1.447.953 2.077.231.833.963 1.9 3.212 2.873a.508.508 0 0 0 .686-.332c.77-3 .108-5.8-1.7-7.2a5.62 5.62 0 0 0-4.143-.916c-7.342.758-8.431 8.953-8 12.79.414 3.728 5.927 9.245 6.152 14.812a.5.5 0 0 0 .494.488Z" class="colorfacf5b svgShape"></path><path fill="#d65bfa" d="M37.58 15.21c.43 3.84 6.26 9.57 6.16 15.3h-1.51a.5.5 0 0 1-.49-.49 1.225 1.225 0 0 0-.02-.19 9.951 9.951 0 0 0-.23-1.6 4.391 4.391 0 0 0-.13-.52 4.444 4.444 0 0 0-.15-.52q-.225-.705-.51-1.41c-.06-.13-.12-.26-.18-.4-.07-.17-.15-.34-.23-.51s-.16-.33-.24-.5c-1.39-2.81-3.26-5.45-4.08-7.65a3.808 3.808 0 0 1-.15-.44 3.311 3.311 0 0 1-.12-.42.076.076 0 0 1-.01-.04 4.619 4.619 0 0 1-.11-.61c-.42-3.84.67-12.03 8.01-12.79.03 0 .09-.01.17-.02l.183-.018.127-.012a5.214 5.214 0 0 1 .7-.01 7.334 7.334 0 0 1 .77.07c-7.3.79-8.38 8.95-7.96 12.78Z" class="colorfacf5b svgShape"></path><path fill="#d65bfa" d="M49.49 10.23c-.03.12-.05.24-.08.36a.512.512 0 0 1-.67.28 12.083 12.083 0 0 1-1.14-.57 6.45 6.45 0 0 1-.61-.41 1.785 1.785 0 0 1-.26-.2c-.08-.07-.16-.13-.23-.2a1.2 1.2 0 0 0-.12-.11c-.1-.1-.18-.19-.26-.28-.05-.07-.1-.13-.15-.2a3.112 3.112 0 0 1-.44-.9c-.04-.14-.07-.3-.11-.47s-.07-.35-.12-.53c-.02-.07-.04-.14-.07-.22a.689.689 0 0 1-.03-.08.722.722 0 0 0-.09-.2 1.089 1.089 0 0 0-.14-.23.86.86 0 0 0-.18-.2 2.209 2.209 0 0 1 .8-.3 1.648 1.648 0 0 1 .99.15c.74.41.78 1.45.95 2.08a3.947 3.947 0 0 0 1.96 2.23Z" class="colorfacf5b svgShape"></path><path fill="#cb4cf0" d="M49.49 10.23c-.03.12-.05.24-.08.36-.383.762-1.355-.115-1.81-.29a6.45 6.45 0 0 1-.61-.41 5.4 5.4 0 0 1-.61-.51c-.1-.1-.18-.19-.26-.28-.05-.07-.1-.13-.15-.2a3.254 3.254 0 0 1-.55-1.37 4.74 4.74 0 0 0-.19-.75.689.689 0 0 1-.03-.08.722.722 0 0 0-.09-.2 1.421 1.421 0 0 0-.32-.43 1.838 1.838 0 0 1 1.79-.15c.74.41.78 1.45.95 2.08a3.947 3.947 0 0 0 1.96 2.23Z" class="colorf0af4c svgShape"></path><path fill="#cb4cf0" d="M37.58 15.21c.43 3.84 6.26 9.57 6.16 15.3h-2c0-.23 0-.45-.02-.68a10.3 10.3 0 0 0-.36-2.12 4.444 4.444 0 0 0-.15-.52q-.225-.705-.51-1.41c-.06-.13-.12-.27-.18-.4-.07-.17-.15-.34-.23-.51s-.15-.33-.24-.5c-1.39-2.81-3.26-5.45-4.08-7.65a3.808 3.808 0 0 1-.15-.44 3.311 3.311 0 0 1-.12-.42.076.076 0 0 1-.01-.04c-.674-4.142.324-12.5 7.9-13.4.03 0 .09-.01.17-.02a7.113 7.113 0 0 1 1.78.03c-7.3.79-8.38 8.95-7.96 12.78Z" class="colorf0af4c svgShape"></path><rect width="8" height="4" x="34.166" y="7.858" fill="#d7e8ef" rx="1.468" class="colord7e6ef svgShape"></rect><path fill="#9ce4ff" d="M37.468 10A1.468 1.468 0 0 1 36 8.532v-.674h-.366a1.468 1.468 0 0 0-1.468 1.468v1.063a1.469 1.469 0 0 0 1.468 1.469H40.7a1.469 1.469 0 0 0 1.469-1.469V10Z" class="colora4c0d8 svgShape"></path><path fill="#d65bfa" d="M48.184 33.347s.737 5.279-4.984 11.711a9.6 9.6 0 0 0-1.279 11.867 2.368 2.368 0 0 0 1.664 1.161 1.575 1.575 0 0 0 .994-.151c.742-.41.778-1.447.953-2.077.231-.833.963-1.9 3.212-2.874a.509.509 0 0 1 .686.333c.77 3 .108 5.8-1.7 7.2a5.62 5.62 0 0 1-4.143.916c-7.342-.758-8.431-8.953-8-12.79s6.253-9.568 6.158-15.3Z" class="colorfacf5b svgShape"></path><path fill="#cb4cf0" d="M49.49 53.63a3.947 3.947 0 0 0-1.96 2.23c-.17.63-.21 1.66-.95 2.08a1.648 1.648 0 0 1-.99.15 2.177 2.177 0 0 1-.79-.31h-.01a1.071 1.071 0 0 0 .18-.19 2.392 2.392 0 0 0 .13-.21 1.39 1.39 0 0 0 .12-.28 1.829 1.829 0 0 0 .08-.25c.07-.25.12-.51.17-.74.02-.09.04-.17.06-.25a2.91 2.91 0 0 1 .59-1.1c.06-.07.11-.13.18-.2a4.243 4.243 0 0 1 .69-.6c.09-.07.18-.13.29-.2.2-.13.43-.27.69-.41.23-.12.49-.24.77-.37.02 0 .03-.01.05-.02a.512.512 0 0 1 .61.3c.04.12.06.25.09.37Z" class="colorf0af4c svgShape"></path><path fill="#cb4cf0" d="M37.584 48.647c.427-3.837 6.253-9.568 6.158-15.3h-2c.1 5.732-5.731 11.463-6.158 15.3s.663 12.032 8 12.79a6.971 6.971 0 0 0 1.954-.008c-7.293-.79-8.379-8.954-7.954-12.782Z" class="colorf0af4c svgShape"></path><rect width="8" height="4" x="34.166" y="52" fill="#d7e8ef" rx="1.468" class="colord7e6ef svgShape"></rect><path fill="#9ce4ff" d="M37.468 54A1.469 1.469 0 0 1 36 52.531V52h-.366a1.468 1.468 0 0 0-1.468 1.468v1.063A1.469 1.469 0 0 0 35.634 56H40.7a1.469 1.469 0 0 0 1.469-1.469V54Z" class="colora4c0d8 svgShape"></path><path fill="#cb4cf0" d="M17.447 30h38v4h-38z" class="colorf0af4c svgShape"></path><path fill="#bf9eff" d="M53 30v3H17.447v1h38v-4H53z" class="colorcb782e svgShape"></path><path fill="#bf9eff" d="M51.887 31.984A3.7 3.7 0 0 0 50.779 34h4.668v-4h-4.574a3.253 3.253 0 0 0 1.014 1.984Z" class="colorcb782e svgShape"></path><path fill="#fdf7ff" d="m17.936 32-7.217-7.458H2L9.992 32h7.944zM2 39.458h8.719L17.936 32H9.992L2 39.458z" class="colorf7fcff svgShape"></path><path fill="#d7e8ef" d="m17.94 32-7.22 7.46H2L9.99 32 2 24.54h3L12.99 32h4.95z" class="colord7e6ef svgShape"></path><path fill="#9ce4ff" d="M19.94 32h-2l-3.67-3.77h2.02L19.94 32zM19.94 32l-3.65 3.77h-2L17.94 32h2z" class="colora4c0d8 svgShape"></path><path fill="#fdf7ff" d="m22.568 32-3.886-3.771h-4.408L17.936 32h4.632zM14.287 35.771h4.632L22.568 32h-4.632l-3.649 3.771z" class="colorf7fcff svgShape"></path><path fill="#d7e8ef" d="m22.57 32-3.65 3.77h-4.63L17.94 32l-3.67-3.77h1.41L19.57 32h3z" class="colord7e6ef svgShape"></path><path fill="#ecabff" d="m57.579 28.292 3.339 3.339a.5.5 0 0 1 0 .707l-3.339 3.339c-3.078 3.078-6.77-.614-3.692-3.692-2.875-2.876.813-6.568 3.692-3.693Z" class="colorffb0bb svgShape"></path><path fill="#d584ed" d="M55.887 31.984c-1.779-1.778-1.042-3.866.458-4.521-2.545-1.017-4.931 2.049-2.458 4.521-2.607 2.608-.356 5.639 2.264 4.64-1.492-.653-2.146-2.757-.264-4.64Z" class="colored8497 svgShape"></path><path fill="#bf9eff" d="M45 21.079h-6.76c.378.65.763 1.318 1.135 2h6.869a21.122 21.122 0 0 0-1.244-2zm-6.76 21.7H45a20.931 20.931 0 0 0 1.239-2h-6.862a82.417 82.417 0 0 1-1.137 2z" class="colorcb782e svgShape"></path></svg>