<svg xmlns="http://www.w3.org/2000/svg" enable-background="new 0 0 64 64" viewBox="0 0 64 64" id="Sport"><path fill="#ecabff" d="M56.73,23.81c-0.98,8.35-4.78,16.18-10.76,22.16c-6,6-13.8,9.78-22.16,10.76c0,0-0.77-1.05-2-1.05
			c-1.24,0-2.1,1.31-2.1,1.31C19.56,57,19.42,57,19.28,57c-3.86,0-7.68-0.58-11.39-1.75c-2.46-0.76-4.38-2.69-5.14-5.14
			c-1.21-3.85-1.79-7.82-1.74-11.82c0,0,0.76-0.69,1.01-2.31c0.26-1.62-0.75-1.79-0.75-1.79c0.98-8.36,4.76-16.16,10.76-22.16
			c5.98-5.98,13.81-9.78,22.16-10.76c0,0,1.17,0.99,2.29,0.99S38.29,1,38.29,1c3.94-0.05,7.84,0.52,11.64,1.69
			c2.58,0.79,4.59,2.8,5.38,5.38c1.17,3.8,1.74,7.7,1.69,11.64c0,0-1.36,0.48-1.36,2.01C55.64,23.26,56.73,23.81,56.73,23.81z" class="color48a1ff svgShape"></path><path fill="#9ce4ff" d="M38.192,25.465l-1.415-1.415l0,0c0.781-0.781,0.781-2.047,0-2.828s-2.048-0.781-2.828,0l0,0l-1.414-1.414
			c-0.78-0.781-2.048-0.781-2.828,0c-0.781,0.781-0.781,2.047,0,2.828l1.414,1.414L29,26.172l-1.414-1.414
			c-0.781-0.781-2.047-0.781-2.829,0c-0.781,0.781-0.781,2.048,0,2.828L26.172,29l-2.121,2.122l-1.415-1.415
			c-0.78-0.781-2.048-0.781-2.828,0c-0.781,0.781-0.781,2.047,0,2.828l1.415,1.415l0,0c-0.781,0.781-0.781,2.047,0,2.828
			c0.391,0.391,0.902,0.586,1.414,0.586s1.024-0.195,1.414-0.586l0,0l1.414,1.414c0.39,0.391,0.902,0.586,1.414,0.586
			s1.024-0.195,1.414-0.586c0.781-0.781,0.781-2.047,0-2.828l-1.414-1.414L29,31.828l1.414,1.414
			c0.391,0.391,0.902,0.586,1.414,0.586s1.024-0.195,1.415-0.586c0.781-0.781,0.781-2.048,0-2.828L31.828,29l2.121-2.122
			l1.415,1.415c0.39,0.391,0.902,0.586,1.414,0.586s1.024-0.195,1.414-0.586C38.974,27.512,38.974,26.246,38.192,25.465z" class="coloraad7fd svgShape"></path><path fill="#bf9eff" d="M63,47c0,2.88-0.77,5.58-2.11,7.92c0,0-1.21,0.25-1.93,1.06c-0.73,0.81-0.73,2.41-0.73,2.41
			C55.34,61.23,51.37,63,47,63s-8.34-1.77-11.23-4.61c0,0,0.74-0.63-0.28-1.91c-1.02-1.28-2.38-1.56-2.38-1.56
			C31.77,52.58,31,49.88,31,47s0.77-5.58,2.11-7.92c0.72-1.28,1.62-2.44,2.66-3.47C38.66,32.77,42.63,31,47,31s8.34,1.77,11.23,4.61
			c0,0-0.85,1.4,0.3,2.42c1.15,1.02,2.36,1.05,2.36,1.05C62.23,41.42,63,44.12,63,47z" class="color2c39fd svgShape"></path><path fill="#9ce4ff" d="M54 20c-8.82 0-16-7.18-16-16 0-1.03.1-2.03.29-3-.93 0-1.87.05-2.81.13-.43.04-.86.08-1.29.14C34.06 2.16 34 3.07 34 4c0 11.03 8.97 20 20 20 .93 0 1.84-.06 2.73-.19.06-.43.1-.86.14-1.29.08-.94.13-1.87.13-2.81C56.03 19.9 55.03 20 54 20zM4 34c-.93 0-1.84.06-2.73.19-.08.66-.15 1.32-.19 1.99-.05.7-.07 1.41-.07 2.11C1.98 38.1 2.98 38 4 38c8.82 0 16 7.18 16 16 0 1.02-.1 2.02-.29 2.99.7 0 1.4-.02 2.11-.07.67-.04 1.33-.11 1.99-.19C23.94 55.84 24 54.93 24 54 24 42.97 15.03 34 4 34zM35.77 35.61c-1.04 1.03-1.94 2.19-2.66 3.47C37 39.62 40 42.97 40 47c0 4.03-3 7.38-6.89 7.92.72 1.28 1.62 2.44 2.66 3.47C40.55 56.81 44 52.3 44 47S40.55 37.19 35.77 35.61zM54 47c0-4.03 3-7.38 6.89-7.92-.72-1.28-1.62-2.44-2.66-3.47C53.45 37.19 50 41.7 50 47s3.45 9.81 8.23 11.39c1.04-1.03 1.94-2.19 2.66-3.47C57 54.38 54 51.03 54 47z" class="coloraad7fd svgShape"></path></svg>