<svg xmlns="http://www.w3.org/2000/svg" fill="none" viewBox="0 0 24 24" id="steeringwheel"><path fill="#bf9eff" d="M15.6775 7.20869C13.2501 6.7232 10.7506 6.7232 8.3232 7.20869L2.32948 8.40743C1.97891 8.47754 1.72656 8.78536 1.72656 9.14287V14.8572C1.72656 15.2714 2.06235 15.6072 2.47656 15.6072H3.66504C6.00906 15.6072 8.06909 17.161 8.71304 19.4149L9.37447 21.7299C9.46646 22.0518 9.76075 22.2738 10.0956 22.2738H13.9051C14.24 22.2738 14.5343 22.0518 14.6263 21.7299L15.2877 19.4149C15.9317 17.161 17.9917 15.6072 20.3357 15.6072H21.5242C21.9384 15.6072 22.2742 15.2714 22.2742 14.8572V9.14287C22.2742 8.78536 22.0218 8.47754 21.6713 8.40743L15.6775 7.20869Z" class="color7ea9ff svgShape"></path><path fill="#955eff" fill-rule="evenodd" d="M12 6.84457V22.2738H10.0956C9.76075 22.2738 9.46646 22.0518 9.37447 21.7299L8.71304 19.4149C8.06909 17.161 6.00906 15.6072 3.66504 15.6072H2.47656C2.06235 15.6072 1.72656 15.2714 1.72656 14.8572V9.14287C1.72656 8.78536 1.97891 8.47754 2.32948 8.40743L8.3232 7.20869C9.53678 6.96597 10.7684 6.8446 12 6.84457Z" clip-rule="evenodd" class="color5e94ff svgShape"></path><path fill="#ecabff" d="M12.0005 9.82144C10.5343 9.82144 9.3457 11.01 9.3457 12.4762C9.3457 13.9424 10.5343 15.131 12.0005 15.131C13.4666 15.131 14.6552 13.9424 14.6552 12.4762C14.6552 11.01 13.4666 9.82144 12.0005 9.82144Z" class="coloreceff1 svgShape"></path><path fill="#9ce4ff" fill-rule="evenodd" d="M12 9.82144V15.131C10.534 15.1307 9.3457 13.9422 9.3457 12.4762C9.3457 11.0102 10.534 9.82169 12 9.82144Z" clip-rule="evenodd" class="colorcfd8dc svgShape"></path><path fill="#955eff" fill-rule="evenodd" d="M12 2.75C6.89137 2.75 2.75 6.89137 2.75 12C2.75 17.1086 6.89137 21.25 12 21.25C17.1086 21.25 21.25 17.1086 21.25 12C21.25 6.89137 17.1086 2.75 12 2.75ZM1.25 12C1.25 6.06294 6.06294 1.25 12 1.25C17.9371 1.25 22.75 6.06294 22.75 12C22.75 17.9371 17.9371 22.75 12 22.75C6.06294 22.75 1.25 17.9371 1.25 12Z" clip-rule="evenodd" class="color5e94ff svgShape"></path><path fill="#8554e5" fill-rule="evenodd" d="M12 1.25C6.06294 1.25 1.25 6.06294 1.25 12C1.25 17.9371 6.06294 22.75 12 22.75V21.25C6.89137 21.25 2.75 17.1086 2.75 12C2.75 6.89137 6.89137 2.75 12 2.75V1.25Z" clip-rule="evenodd" class="color5485e5 svgShape"></path></svg>